<svg width="1024" height="207" viewBox="0 0 1024 207" fill="none" xmlns="http://www.w3.org/2000/svg">
<g clip-path="url(#clip0_6475_602)">
<path d="M979.032 43.8495C992.501 43.8495 1003.33 47.997 1011.52 56.2927C1019.84 64.4573 1024 75.9132 1024 90.661V154.855H996.264V94.4139C996.264 85.8548 994.09 79.3368 989.731 74.86C985.371 70.2508 979.428 67.9468 971.902 67.9468C964.376 67.9468 958.364 70.2508 953.872 74.86C949.518 79.3368 947.338 85.8548 947.338 94.4139V154.855H919.602V94.4139C919.602 85.8548 917.422 79.3368 913.062 74.86C908.709 70.2508 902.766 67.9468 895.24 67.9468C887.576 67.9468 881.501 70.2508 877.009 74.86C872.655 79.3368 870.475 85.8548 870.475 94.4139V154.855H842.739V45.4296H870.475V58.6632C874.037 54.0546 878.598 50.4333 884.145 47.7994C889.825 45.1661 896.031 43.8495 902.766 43.8495C911.347 43.8495 919.005 45.6924 925.746 49.3795C932.481 52.9349 937.695 58.0704 941.395 64.786C944.957 58.4656 950.109 53.3959 956.843 49.5771C963.71 45.7583 971.11 43.8495 979.032 43.8495Z" fill="white"/>
<path d="M822.31 45.4296V154.855H794.379V141.028C790.811 145.769 786.124 149.522 780.313 152.287C774.634 154.921 768.427 156.237 761.693 156.237C753.111 156.237 745.516 154.46 738.913 150.904C732.311 147.218 727.09 141.885 723.264 134.906C719.564 127.795 717.717 119.367 717.717 109.623V45.4296H745.447V105.673C745.447 114.364 747.627 121.079 751.987 125.82C756.347 130.428 762.289 132.733 769.816 132.733C777.474 132.733 783.486 130.428 787.839 125.82C792.199 121.079 794.379 114.364 794.379 105.673V45.4296H822.31Z" fill="white"/>
<path d="M659.688 156.632C650.711 156.632 642.651 155.052 635.521 151.892C628.391 148.6 622.711 144.189 618.483 138.659C614.387 133.128 612.145 127.004 611.749 120.289H639.68C640.207 124.503 642.255 127.992 645.824 130.757C649.518 133.523 654.078 134.906 659.487 134.906C664.771 134.906 668.867 133.852 671.775 131.745C674.81 129.638 676.33 126.939 676.33 123.647C676.33 120.091 674.477 117.458 670.783 115.746C667.215 113.903 661.473 111.927 653.544 109.82C645.359 107.845 638.624 105.805 633.341 103.698C628.189 101.591 623.704 98.3645 619.872 94.0187C616.172 89.6736 614.325 83.8136 614.325 76.44C614.325 70.3825 616.04 64.8518 619.476 59.848C623.038 54.8443 628.058 50.8937 634.528 47.997C641.131 45.1002 648.858 43.6519 657.71 43.6519C670.783 43.6519 681.218 46.9438 689.007 53.5276C696.797 59.9798 701.088 68.7365 701.886 79.7978H675.337C674.942 75.4521 673.095 72.0284 669.79 69.5269C666.624 66.8929 662.327 65.5763 656.918 65.5763C651.898 65.5763 648.004 66.4978 645.227 68.3413C642.588 70.1849 641.263 72.7529 641.263 76.0448C641.263 79.732 643.116 82.5628 646.81 84.5381C650.51 86.3817 656.252 88.2911 664.048 90.2664C671.97 92.2417 678.51 94.2822 683.661 96.3892C688.806 98.4962 693.235 101.788 696.929 106.265C700.762 110.611 702.74 116.405 702.872 123.647C702.872 129.968 701.088 135.629 697.526 140.633C694.09 145.638 689.07 149.588 682.468 152.485C675.997 155.25 668.402 156.632 659.688 156.632Z" fill="white"/>
<path d="M518.1 61.2306C521.668 56.2268 526.556 52.0793 532.763 48.7873C539.101 45.3637 546.295 43.6519 554.355 43.6519C563.728 43.6519 572.184 45.9558 579.71 50.565C587.368 55.1736 593.38 61.7575 597.74 70.3166C602.225 78.744 604.474 88.5545 604.474 99.747C604.474 110.94 602.225 120.882 597.74 129.573C593.38 138.132 587.368 144.781 579.71 149.522C572.184 154.263 563.728 156.632 554.355 156.632C546.295 156.632 539.164 154.987 532.957 151.695C526.883 148.403 521.932 144.254 518.1 139.251V207H490.37V45.4295H518.1V61.2306ZM576.141 99.747C576.141 93.1631 574.759 87.5007 571.983 82.7604C569.344 77.8884 565.776 74.2013 561.284 71.6991C556.93 69.1975 552.175 67.9468 547.023 67.9468C542.004 67.9468 537.248 69.2634 532.763 71.8967C528.403 74.3989 524.835 78.086 522.064 82.958C519.419 87.8301 518.1 93.5583 518.1 100.142C518.1 106.726 519.419 112.454 522.064 117.326C524.835 122.198 528.403 125.951 532.763 128.585C537.248 131.087 542.004 132.338 547.023 132.338C552.175 132.338 556.93 131.021 561.284 128.388C565.776 125.754 569.344 122.001 571.983 117.129C574.759 112.257 576.141 106.463 576.141 99.747Z" fill="white"/>
<path d="M456.233 32.393C451.345 32.393 447.249 30.8788 443.951 27.8503C440.779 24.6899 439.195 20.8053 439.195 16.1966C439.195 11.5878 440.779 7.76909 443.951 4.74043C447.249 1.58016 451.345 0 456.233 0C461.12 0 465.147 1.58016 468.313 4.74043C471.618 7.76909 473.27 11.5878 473.27 16.1966C473.27 20.8053 471.618 24.6899 468.313 27.8503C465.147 30.8788 461.12 32.393 456.233 32.393ZM469.903 45.4296V154.855H442.167V45.4296H469.903Z" fill="white"/>
<path d="M371.505 156.632C360.944 156.632 351.432 154.328 342.98 149.719C334.528 144.979 327.859 138.329 322.973 129.77C318.218 121.211 315.841 111.335 315.841 100.142C315.841 88.9491 318.284 79.0733 323.171 70.5142C328.189 61.955 334.991 55.3712 343.575 50.7626C352.162 46.0217 361.736 43.6519 372.296 43.6519C382.863 43.6519 392.437 46.0217 401.025 50.7626C409.606 55.3712 416.341 61.955 421.228 70.5142C426.248 79.0733 428.754 88.9491 428.754 100.142C428.754 111.335 426.179 121.211 421.034 129.77C416.014 138.329 409.148 144.979 400.428 149.719C391.846 154.328 382.203 156.632 371.505 156.632ZM371.505 132.535C376.524 132.535 381.211 131.35 385.571 128.98C390.062 126.478 393.624 122.791 396.269 117.919C398.908 113.046 400.233 107.121 400.233 100.142C400.233 89.7395 397.457 81.7731 391.909 76.2424C386.494 70.58 379.829 67.7492 371.9 67.7492C363.979 67.7492 357.307 70.58 351.892 76.2424C346.612 81.7731 343.971 89.7395 343.971 100.142C343.971 110.545 346.546 118.577 351.697 124.239C356.98 129.77 363.583 132.535 371.505 132.535Z" fill="white"/>
<path d="M252.114 156.632C241.549 156.632 232.04 154.328 223.588 149.719C215.136 144.979 208.467 138.329 203.581 129.77C198.826 121.211 196.449 111.335 196.449 100.142C196.449 88.9491 198.892 79.0733 203.779 70.5142C208.797 61.955 215.598 55.3712 224.182 50.7626C232.767 46.0217 242.341 43.6519 252.907 43.6519C263.472 43.6519 273.047 46.0217 281.631 50.7626C290.215 55.3712 296.95 61.955 301.837 70.5142C306.855 79.0733 309.364 88.9491 309.364 100.142C309.364 111.335 306.789 121.211 301.638 129.77C296.62 138.329 289.752 144.979 281.036 149.719C272.452 154.328 262.812 156.632 252.114 156.632ZM252.114 132.535C257.133 132.535 261.821 131.35 266.179 128.98C270.67 126.478 274.235 122.791 276.876 117.919C279.517 113.046 280.839 107.121 280.839 100.142C280.839 89.7395 278.065 81.7731 272.518 76.2424C267.104 70.58 260.435 67.7492 252.51 67.7492C244.586 67.7492 237.917 70.58 232.503 76.2424C227.22 81.7731 224.579 89.7395 224.579 100.142C224.579 110.545 227.154 118.577 232.305 124.239C237.587 129.77 244.19 132.535 252.114 132.535Z" fill="white"/>
<path d="M132.722 156.632C122.157 156.632 112.648 154.328 104.196 149.719C95.744 144.979 89.0748 138.329 84.1885 129.77C79.4341 121.211 77.0569 111.335 77.0569 100.142C77.0569 88.9491 79.5001 79.0733 84.3864 70.5142C89.4046 61.955 96.2064 55.3712 104.79 50.7626C113.374 46.0217 122.949 43.6519 133.515 43.6519C144.08 43.6519 153.655 46.0217 162.239 50.7626C170.823 55.3712 177.558 61.955 182.445 70.5142C187.463 79.0733 189.972 88.9491 189.972 100.142C189.972 111.335 187.397 121.211 182.246 129.77C177.228 138.329 170.36 144.979 161.644 149.719C153.06 154.328 143.42 156.632 132.722 156.632ZM132.722 132.535C137.741 132.535 142.429 131.35 146.787 128.98C151.277 126.478 154.843 122.791 157.484 117.919C160.125 113.046 161.446 107.121 161.446 100.142C161.446 89.7395 158.673 81.7731 153.126 76.2424C147.712 70.58 141.042 67.7492 133.118 67.7492C125.194 67.7492 118.525 70.58 113.111 76.2424C107.828 81.7731 105.187 89.7395 105.187 100.142C105.187 110.545 107.762 118.577 112.913 124.239C118.195 129.77 124.798 132.535 132.722 132.535Z" fill="white"/>
<path d="M27.7334 132.93H73.2958V154.855H0V16.9865H27.7334V132.93Z" fill="white"/>
<path d="M203.767 169.554C210.791 190.384 230.536 205.388 253.796 205.388H256.69C285.834 205.388 309.46 181.832 309.46 152.773V149.8H280.851V152.773C280.851 166.077 270.034 176.863 256.69 176.863H253.796C246.995 176.863 240.851 174.062 236.46 169.554H203.767Z" fill="white"/>
</g>
<defs>
<clipPath id="clip0_6475_602">
<rect width="1024" height="207" fill="white"/>
</clipPath>
</defs>
</svg>
