<svg width="1024" height="198" viewBox="0 0 1024 198" fill="none" xmlns="http://www.w3.org/2000/svg">
<g clip-path="url(#clip0_6436_150)">
<path d="M988.59 64.303C999.196 64.303 1007.72 67.5759 1014.17 74.1223C1020.73 80.5652 1024 89.6054 1024 101.243V151.901H1002.16V104.205C1002.16 97.4507 1000.45 92.3071 997.015 88.7743C993.582 85.137 988.902 83.3189 982.976 83.3189C977.049 83.3189 972.315 85.137 968.778 88.7743C965.35 92.3071 963.633 97.4507 963.633 104.205V151.901H941.793V104.205C941.793 97.4507 940.077 92.3071 936.643 88.7743C933.215 85.137 928.535 83.3189 922.609 83.3189C916.574 83.3189 911.79 85.137 908.253 88.7743C904.825 92.3071 903.109 97.4507 903.109 104.205V151.901H881.268V65.5499H903.109V75.9929C905.913 72.3561 909.505 69.4985 913.873 67.42C918.345 65.342 923.232 64.303 928.535 64.303C935.293 64.303 941.323 65.7573 946.631 68.6669C951.934 71.4726 956.04 75.5251 958.954 80.8246C961.759 75.837 965.815 71.8364 971.118 68.8228C976.525 65.8093 982.352 64.303 988.59 64.303Z" fill="black"/>
<path d="M865.181 65.5499V151.901H843.187V140.99C840.378 144.731 836.687 147.692 832.111 149.875C827.639 151.953 822.752 152.992 817.449 152.992C810.691 152.992 804.711 151.589 799.511 148.783C794.312 145.874 790.201 141.666 787.189 136.158C784.275 130.547 782.821 123.897 782.821 116.207V65.5499H804.656V113.09C804.656 119.948 806.373 125.247 809.806 128.988C813.239 132.625 817.919 134.443 823.845 134.443C829.875 134.443 834.609 132.625 838.038 128.988C841.471 125.247 843.187 119.948 843.187 113.09V65.5499H865.181Z" fill="black"/>
<path d="M737.127 153.303C730.058 153.303 723.711 152.057 718.096 149.563C712.481 146.965 708.009 143.484 704.68 139.12C701.455 134.755 699.689 129.923 699.377 124.624H721.371C721.786 127.949 723.399 130.703 726.209 132.885C729.118 135.067 732.709 136.158 736.968 136.158C741.129 136.158 744.354 135.327 746.644 133.664C749.034 132.002 750.231 129.871 750.231 127.273C750.231 124.468 748.772 122.39 745.863 121.039C743.053 119.584 738.532 118.025 732.289 116.363C725.843 114.804 720.54 113.194 716.38 111.531C712.323 109.868 708.791 107.322 705.773 103.893C702.86 100.464 701.405 95.8399 701.405 90.0212C701.405 85.241 702.756 80.8766 705.462 76.9279C708.267 72.9793 712.219 69.8618 717.314 67.5759C722.514 65.29 728.598 64.147 735.568 64.147C745.863 64.147 754.08 66.7448 760.214 71.9403C766.348 77.0319 769.726 83.9421 770.355 92.6709H749.449C749.138 89.2416 747.683 86.5398 745.081 84.5658C742.588 82.4873 739.204 81.4483 734.945 81.4483C730.993 81.4483 727.925 82.1754 725.739 83.6302C723.661 85.085 722.618 87.1116 722.618 89.7093C722.618 92.6189 724.077 94.8529 726.986 96.4116C729.899 97.8664 734.421 99.3732 740.56 100.932C746.798 102.491 751.947 104.101 756.004 105.764C760.055 107.426 763.543 110.024 766.452 113.557C769.469 116.986 771.027 121.559 771.131 127.273C771.131 132.262 769.726 136.729 766.922 140.678C764.216 144.627 760.263 147.744 755.064 150.031C749.969 152.212 743.988 153.303 737.127 153.303Z" fill="black"/>
<path d="M625.634 78.0189C628.444 74.0703 632.293 70.7974 637.18 68.1996C642.172 65.4979 647.836 64.147 654.183 64.147C661.563 64.147 668.222 65.9652 674.148 69.6024C680.178 73.2392 684.913 78.4347 688.346 85.189C691.878 91.8393 693.649 99.5811 693.649 108.413C693.649 117.246 691.878 125.091 688.346 131.95C684.913 138.704 680.178 143.951 674.148 147.692C668.222 151.433 661.563 153.303 654.183 153.303C647.836 153.303 642.221 152.005 637.334 149.407C632.55 146.809 628.652 143.536 625.634 139.587V193.05H603.799V65.5499H625.634V78.0189ZM671.338 108.413C671.338 103.218 670.25 98.7495 668.064 95.0088C665.986 91.1641 663.176 88.2545 659.639 86.28C656.211 84.3059 652.466 83.3189 648.41 83.3189C644.457 83.3189 640.712 84.3579 637.18 86.4359C633.747 88.4105 630.937 91.3201 628.756 95.1647C626.673 99.0094 625.634 103.53 625.634 108.725C625.634 113.921 626.673 118.441 628.756 122.286C630.937 126.13 633.747 129.092 637.18 131.17C640.712 133.145 644.457 134.132 648.41 134.132C652.466 134.132 656.211 133.093 659.639 131.015C663.176 128.936 665.986 125.975 668.064 122.13C670.25 118.285 671.338 113.713 671.338 108.413Z" fill="black"/>
<path d="M576.918 55.2623C573.069 55.2623 569.844 54.0674 567.247 51.6775C564.748 49.1836 563.502 46.1181 563.502 42.4812C563.502 38.8443 564.748 35.8308 567.247 33.4408C569.844 30.947 573.069 29.7 576.918 29.7C580.766 29.7 583.937 30.947 586.43 33.4408C589.032 35.8308 590.334 38.8443 590.334 42.4812C590.334 46.1181 589.032 49.1836 586.43 51.6775C583.937 54.0674 580.766 55.2623 576.918 55.2623ZM587.682 65.5499V151.901H565.842V65.5499H587.682Z" fill="black"/>
<path d="M510.199 153.303C501.884 153.303 494.394 151.485 487.738 147.848C481.083 144.107 475.831 138.86 471.983 132.106C468.24 125.351 466.368 117.558 466.368 108.725C466.368 99.8925 468.292 92.0992 472.139 85.3449C476.091 78.5906 481.447 73.3951 488.206 69.7584C494.968 66.0171 502.507 64.147 510.823 64.147C519.143 64.147 526.682 66.0171 533.445 69.7584C540.202 73.3951 545.505 78.5906 549.354 85.3449C553.306 92.0992 555.28 99.8925 555.28 108.725C555.28 117.558 553.252 125.351 549.2 132.106C545.248 138.86 539.841 144.107 532.975 147.848C526.217 151.485 518.624 153.303 510.199 153.303ZM510.199 134.288C514.152 134.288 517.842 133.352 521.275 131.482C524.812 129.508 527.617 126.598 529.7 122.754C531.778 118.908 532.821 114.233 532.821 108.725C532.821 100.516 530.635 94.2297 526.267 89.8653C522.003 85.3969 516.754 83.163 510.511 83.163C504.273 83.163 499.019 85.3969 494.755 89.8653C490.598 94.2297 488.518 100.516 488.518 108.725C488.518 116.934 490.546 123.273 494.602 127.741C498.762 132.106 503.961 134.288 510.199 134.288Z" fill="black"/>
<path d="M416.187 153.303C407.867 153.303 400.38 151.485 393.724 147.848C387.069 144.107 381.817 138.86 377.969 132.106C374.226 125.351 372.354 117.558 372.354 108.725C372.354 99.8925 374.277 92.0992 378.125 85.3449C382.077 78.5906 387.433 73.3951 394.192 69.7584C400.951 66.0171 408.491 64.147 416.811 64.147C425.13 64.147 432.67 66.0171 439.429 69.7584C446.189 73.3951 451.492 78.5906 455.34 85.3449C459.292 92.0992 461.268 99.8925 461.268 108.725C461.268 117.558 459.24 125.351 455.184 132.106C451.232 138.86 445.824 144.107 438.961 147.848C432.202 151.485 424.61 153.303 416.187 153.303ZM416.187 134.288C420.138 134.288 423.83 133.352 427.262 131.482C430.798 129.508 433.606 126.598 435.685 122.754C437.765 118.908 438.805 114.233 438.805 108.725C438.805 100.516 436.621 94.2297 432.254 89.8653C427.99 85.3969 422.738 83.163 416.498 83.163C410.259 83.163 405.007 85.3969 400.744 89.8653C396.584 94.2297 394.504 100.516 394.504 108.725C394.504 116.934 396.532 123.273 400.588 127.741C404.747 132.106 409.947 134.288 416.187 134.288Z" fill="black"/>
<path d="M322.173 153.303C313.853 153.303 306.365 151.485 299.71 147.848C293.054 144.107 287.803 138.86 283.955 132.106C280.211 125.351 278.339 117.558 278.339 108.725C278.339 99.8925 280.263 92.0992 284.111 85.3449C288.063 78.5906 293.418 73.3951 300.178 69.7584C306.937 66.0171 314.477 64.147 322.796 64.147C331.116 64.147 338.656 66.0171 345.415 69.7584C352.174 73.3951 357.478 78.5906 361.326 85.3449C365.278 92.0992 367.253 99.8925 367.253 108.725C367.253 117.558 365.226 125.351 361.17 132.106C357.218 138.86 351.81 144.107 344.947 147.848C338.188 151.485 330.596 153.303 322.173 153.303ZM322.173 134.288C326.124 134.288 329.816 133.352 333.248 131.482C336.784 129.508 339.591 126.598 341.671 122.754C343.751 118.908 344.791 114.233 344.791 108.725C344.791 100.516 342.607 94.2297 338.24 89.8653C333.976 85.3969 328.724 83.163 322.484 83.163C316.245 83.163 310.993 85.3969 306.73 89.8653C302.57 94.2297 300.49 100.516 300.49 108.725C300.49 116.934 302.518 123.273 306.574 127.741C310.733 132.106 315.933 134.288 322.173 134.288Z" fill="black"/>
<path d="M239.5 134.599H275.378V151.901H217.662V43.1046H239.5V134.599Z" fill="black"/>
<path d="M378.116 163.5C383.647 179.938 399.195 191.778 417.511 191.778H419.79C442.739 191.778 461.343 173.189 461.343 150.258V147.911H438.815V150.258C438.815 160.757 430.297 169.268 419.79 169.268H417.511C412.156 169.268 407.318 167.058 403.86 163.5H378.116Z" fill="black"/>
<path d="M74.2029 0L101.186 26.4L0 125.4V72.6002L74.2029 0Z" fill="#D62400"/>
<path d="M14.3868 139.476L74.2029 198L148.406 125.4V72.6002L101.186 26.4002L0 125.4L0.0206225 125.421L101.186 26.4002V102.3L55.6522 146.85V99.6554L14.3868 139.476Z" fill="#FC8F1A"/>
</g>
<defs>
<clipPath id="clip0_6436_150">
<rect width="1024" height="198" fill="white"/>
</clipPath>
</defs>
</svg>
